<?xml version="1.0" encoding="UTF-8"?>
<!DOCTYPE svg PUBLIC "-//W3C//DTD SVG 1.1//EN" "http://www.w3.org/Graphics/SVG/1.1/DTD/svg11.dtd">
<!-- Creator: CorelDRAW X6 -->
<svg xmlns="http://www.w3.org/2000/svg" xml:space="preserve" width="1.27mm" height="2.54mm" version="1.1" style="shape-rendering:geometricPrecision; text-rendering:geometricPrecision; image-rendering:optimizeQuality; fill-rule:evenodd; clip-rule:evenodd"
viewBox="0 0 0 0"
 xmlns:xlink="http://www.w3.org/1999/xlink">
 <defs>
  <style type="text/css">
   <![CDATA[
    .fil0 {fill:black}
    .fil2 {fill:#212121}
    .fil5 {fill:#689F38}
    .fil4 {fill:#6D4C41}
    .fil6 {fill:#8BC34A}
    .fil3 {fill:#8D6E63}
    .fil1 {fill:#E0AC69}
   ]]>
  </style>
 </defs>
 <g id="Layer_x0020_1">
  <metadata id="CorelCorpID_0Corel-Layer"/>
  <g id="_1004712384">
   <path class="fil0" d="M0 0l0 0 0 0 0 0 0 0 0 0 0 0 0 0 0 0 0 0 0 0 0 0zm0 0l0 0 0 0 0 0 0 0 0 0 0 0zm0 0l0 0 0 0 0 0 0 0zm0 0l0 0 0 0 0 0 0 0 0 0 0 0 0 0 0 0 0 0 0 0 0 0zm0 0l0 0 0 0 0 0 0 0zm0 0l0 0 0 0 0 0 0 0 0 0 0 0 0 0 0 0 0 0 0 0 0 0 0 0 0 0 0 0 0 0 0 0 0 0 0 0 0 0 0 0 0 0 0 0 0 0 0 0 0 0 0 0 0 0 0 0 0 0 0 0 0 0 0 0 0 0 0 0 0 0 0 0 0 0 0 0 0 0 0 0 0 0 0 0 0 0 0 0 0 0 0 0 0 0 0 0 0 0 0 0 0 0 0 0 0 0 0 0 0 0 0 0 0 0 0 0 0 0 0 0 0 0 0 0 0 0 0 0 0 0 0 0 0 0 0 0 0 0 0 0 0 0 0 0 0 0 0 0 0 0 0 0 0 0 0 0 0 0 0 0 0 0 0 0 0 0 0 0z"/>
   <path class="fil1" d="M0 0l0 0 0 0 0 0 0 0 0 0 0 0zm0 0l0 0 0 0 0 0 0 0zm0 0l0 0 0 0 0 0 0 0zm0 0l0 0 0 0 0 0 0 0 0 0 0 0 0 0 0 0 0 0 0 0 0 0 0 0 0 0 0 0 0 0 0 0 0 0 0 0 0 0 0 0 0 0 0 0 0 0 0 0 0 0z"/>
   <path class="fil0" d="M0 0l0 0 0 0 0 0 0 0zm0 0l0 0 0 0 0 0 0 0 0 0 0 0 0 0 0 0 0 0 0 0 0 0 0 0 0 0 0 0 0 0 0 0 0 0 0 0 0 0 0 0 0 0 0 0 0 0 0 0 0 0 0 0 0 0 0 0 0 0 0 0 0 0 0 0 0 0 0 0 0 0 0 0z"/>
   <polygon class="fil2" points="0,0 0,0 0,0 0,0 0,0 0,0 0,0 0,0 0,0 0,0 0,0 0,0 "/>
   <polygon class="fil0" points="0,0 0,0 0,0 0,0 0,0 0,0 0,0 0,0 0,0 0,0 0,0 0,0 0,0 0,0 0,0 0,0 0,0 0,0 0,0 0,0 "/>
   <polygon class="fil0" points="0,0 0,0 0,0 0,0 0,0 0,0 0,0 0,0 0,0 0,0 0,0 0,0 0,0 0,0 0,0 0,0 0,0 0,0 0,0 0,0 0,0 "/>
   <polygon class="fil3" points="0,0 0,0 0,0 0,0 0,0 0,0 0,0 0,0 0,0 0,0 0,0 0,0 0,0 0,0 0,0 0,0 0,0 0,0 0,0 0,0 0,0 "/>
   <polygon class="fil4" points="0,0 0,0 0,0 0,0 0,0 0,0 0,0 0,0 "/>
   <polygon class="fil4" points="0,0 0,0 0,0 0,0 0,0 0,0 0,0 0,0 "/>
   <polygon class="fil5" points="0,0 0,0 0,0 0,0 0,0 0,0 0,0 0,0 0,0 0,0 0,0 0,0 0,0 0,0 0,0 0,0 0,0 0,0 "/>
   <polygon class="fil0" points="0,0 0,0 0,0 0,0 0,0 0,0 0,0 0,0 0,0 0,0 0,0 0,0 0,0 0,0 0,0 0,0 0,0 0,0 "/>
   <polygon class="fil3" points="0,0 0,0 0,0 0,0 0,0 0,0 0,0 0,0 0,0 0,0 0,0 0,0 0,0 0,0 "/>
   <polygon class="fil5" points="0,0 0,0 0,0 0,0 0,0 0,0 0,0 0,0 0,0 0,0 0,0 0,0 0,0 0,0 "/>
   <polygon class="fil3" points="0,0 0,0 0,0 0,0 0,0 0,0 0,0 0,0 0,0 0,0 0,0 0,0 "/>
   <polygon class="fil2" points="0,0 0,0 0,0 0,0 0,0 0,0 0,0 0,0 "/>
   <polygon class="fil5" points="0,0 0,0 0,0 0,0 0,0 0,0 0,0 0,0 0,0 0,0 0,0 0,0 0,0 0,0 "/>
   <polygon class="fil3" points="0,0 0,0 0,0 0,0 0,0 0,0 0,0 0,0 "/>
   <polygon class="fil3" points="0,0 0,0 0,0 0,0 0,0 0,0 0,0 0,0 0,0 0,0 "/>
   <polygon class="fil0" points="0,0 0,0 0,0 0,0 0,0 0,0 0,0 0,0 "/>
   <polygon class="fil2" points="0,0 0,0 0,0 0,0 0,0 0,0 0,0 0,0 "/>
   <polygon class="fil3" points="0,0 0,0 0,0 0,0 0,0 0,0 0,0 0,0 0,0 0,0 "/>
   <polygon class="fil3" points="0,0 0,0 0,0 0,0 0,0 0,0 0,0 "/>
   <polygon class="fil0" points="0,0 0,0 0,0 0,0 0,0 0,0 0,0 0,0 "/>
   <polygon class="fil4" points="0,0 0,0 0,0 0,0 0,0 0,0 0,0 0,0 "/>
   <polygon class="fil6" points="0,0 0,0 0,0 0,0 "/>
   <polygon class="fil1" points="0,0 0,0 0,0 0,0 "/>
   <polygon class="fil0" points="0,0 0,0 0,0 0,0 0,0 0,0 0,0 0,0 "/>
   <polygon class="fil1" points="0,0 0,0 0,0 0,0 0,0 0,0 0,0 0,0 0,0 0,0 "/>
   <polygon class="fil4" points="0,0 0,0 0,0 0,0 0,0 0,0 0,0 "/>
   <polygon class="fil4" points="0,0 0,0 0,0 0,0 0,0 0,0 0,0 0,0 0,0 0,0 0,0 "/>
   <polygon class="fil0" points="0,0 0,0 0,0 0,0 0,0 0,0 0,0 0,0 0,0 0,0 0,0 "/>
   <polygon class="fil4" points="0,0 0,0 0,0 0,0 0,0 0,0 "/>
   <polygon class="fil5" points="0,0 0,0 0,0 0,0 "/>
   <polygon class="fil6" points="0,0 0,0 0,0 0,0 0,0 "/>
   <polygon class="fil6" points="0,0 0,0 0,0 0,0 0,0 0,0 "/>
   <polygon class="fil5" points="0,0 0,0 0,0 0,0 0,0 0,0 0,0 0,0 0,0 "/>
   <polygon class="fil0" points="0,0 0,0 0,0 0,0 0,0 0,0 "/>
   <polygon class="fil2" points="0,0 0,0 0,0 0,0 "/>
   <polygon class="fil6" points="0,0 0,0 0,0 0,0 0,0 0,0 "/>
   <polygon class="fil4" points="0,0 0,0 0,0 0,0 0,0 0,0 0,0 0,0 0,0 "/>
   <polygon class="fil4" points="0,0 0,0 0,0 0,0 0,0 0,0 0,0 0,0 "/>
   <polygon class="fil0" points="0,0 0,0 0,0 0,0 "/>
   <polygon class="fil4" points="0,0 0,0 0,0 0,0 0,0 0,0 0,0 0,0 "/>
   <polygon class="fil6" points="0,0 0,0 0,0 0,0 0,0 0,0 0,0 "/>
   <polygon class="fil3" points="0,0 0,0 0,0 0,0 "/>
   <polygon class="fil5" points="0,0 0,0 0,0 0,0 0,0 0,0 0,0 "/>
   <polygon class="fil5" points="0,0 0,0 0,0 0,0 0,0 "/>
   <polygon class="fil5" points="0,0 0,0 0,0 0,0 0,0 "/>
   <polygon class="fil3" points="0,0 0,0 0,0 0,0 0,0 "/>
   <polygon class="fil0" points="0,0 0,0 0,0 0,0 0,0 0,0 "/>
   <polygon class="fil6" points="0,0 0,0 0,0 0,0 0,0 "/>
   <polygon class="fil6" points="0,0 0,0 0,0 0,0 0,0 "/>
   <polygon class="fil5" points="0,0 0,0 0,0 0,0 0,0 "/>
   <polygon class="fil5" points="0,0 0,0 0,0 0,0 0,0 "/>
   <polygon class="fil4" points="0,0 0,0 0,0 0,0 "/>
   <polygon class="fil5" points="0,0 0,0 0,0 0,0 "/>
   <polygon class="fil5" points="0,0 0,0 0,0 0,0 0,0 "/>
   <polygon class="fil3" points="0,0 0,0 0,0 0,0 0,0 0,0 0,0 0,0 "/>
   <polygon class="fil4" points="0,0 0,0 0,0 0,0 0,0 0,0 0,0 "/>
   <polygon class="fil3" points="0,0 0,0 0,0 0,0 0,0 "/>
   <polygon class="fil3" points="0,0 0,0 0,0 0,0 "/>
   <polygon class="fil4" points="0,0 0,0 0,0 0,0 0,0 "/>
   <polygon class="fil6" points="0,0 0,0 0,0 0,0 0,0 0,0 "/>
   <polygon class="fil5" points="0,0 0,0 0,0 0,0 0,0 0,0 0,0 0,0 "/>
   <polygon class="fil6" points="0,0 0,0 0,0 0,0 "/>
   <polygon class="fil4" points="0,0 0,0 0,0 0,0 "/>
   <polygon class="fil6" points="0,0 0,0 0,0 0,0 0,0 0,0 "/>
   <polygon class="fil5" points="0,0 0,0 0,0 0,0 "/>
   <polygon class="fil6" points="0,0 0,0 0,0 0,0 0,0 0,0 0,0 "/>
   <polygon class="fil0" points="0,0 0,0 0,0 0,0 0,0 "/>
   <polygon class="fil4" points="0,0 0,0 0,0 0,0 0,0 0,0 "/>
   <polygon class="fil0" points="0,0 0,0 0,0 0,0 0,0 0,0 "/>
   <polygon class="fil4" points="0,0 0,0 0,0 0,0 "/>
   <polygon class="fil0" points="0,0 0,0 0,0 0,0 "/>
   <polygon class="fil5" points="0,0 0,0 0,0 0,0 0,0 0,0 "/>
   <polygon class="fil5" points="0,0 0,0 0,0 0,0 0,0 0,0 0,0 0,0 "/>
   <polygon class="fil1" points="0,0 0,0 0,0 0,0 "/>
   <polygon class="fil6" points="0,0 0,0 0,0 0,0 0,0 "/>
   <polygon class="fil0" points="0,0 0,0 0,0 0,0 "/>
   <polygon class="fil6" points="0,0 0,0 0,0 0,0 0,0 "/>
   <polygon class="fil5" points="0,0 0,0 0,0 0,0 0,0 "/>
   <polygon class="fil5" points="0,0 0,0 0,0 0,0 0,0 "/>
   <polygon class="fil6" points="0,0 0,0 0,0 0,0 "/>
   <polygon class="fil6" points="0,0 0,0 0,0 0,0 "/>
   <polygon class="fil0" points="0,0 0,0 0,0 0,0 "/>
   <polygon class="fil0" points="0,0 0,0 0,0 0,0 "/>
   <polygon class="fil5" points="0,0 0,0 0,0 0,0 "/>
   <polygon class="fil3" points="0,0 0,0 0,0 0,0 "/>
   <polygon class="fil4" points="0,0 0,0 0,0 0,0 "/>
   <polygon class="fil3" points="0,0 0,0 0,0 0,0 0,0 0,0 "/>
   <polygon class="fil3" points="0,0 0,0 0,0 0,0 0,0 "/>
   <polygon class="fil6" points="0,0 0,0 0,0 0,0 "/>
   <polygon class="fil4" points="0,0 0,0 0,0 0,0 "/>
   <polygon class="fil4" points="0,0 0,0 0,0 0,0 0,0 "/>
   <polygon class="fil5" points="0,0 0,0 0,0 0,0 0,0 "/>
   <polygon class="fil0" points="0,0 0,0 0,0 0,0 0,0 "/>
   <polygon class="fil4" points="0,0 0,0 0,0 0,0 "/>
   <polygon class="fil6" points="0,0 0,0 0,0 0,0 "/>
   <polygon class="fil0" points="0,0 0,0 0,0 0,0 0,0 "/>
   <polygon class="fil4" points="0,0 0,0 0,0 0,0 "/>
   <polygon class="fil5" points="0,0 0,0 0,0 0,0 "/>
   <polygon class="fil3" points="0,0 0,0 0,0 0,0 "/>
   <polygon class="fil4" points="0,0 0,0 0,0 0,0 "/>
   <polygon class="fil3" points="0,0 0,0 0,0 0,0 0,0 "/>
   <polygon class="fil0" points="0,0 0,0 0,0 0,0 "/>
   <polygon class="fil3" points="0,0 0,0 0,0 0,0 "/>
   <polygon class="fil0" points="0,0 0,0 0,0 0,0 0,0 "/>
   <polygon class="fil0" points="0,0 0,0 0,0 0,0 "/>
   <polygon class="fil2" points="0,0 0,0 0,0 0,0 "/>
   <polygon class="fil0" points="0,0 0,0 0,0 0,0 "/>
   <polygon class="fil6" points="0,0 0,0 0,0 0,0 "/>
   <polygon class="fil6" points="0,0 0,0 0,0 0,0 "/>
   <polygon class="fil5" points="0,0 0,0 0,0 0,0 "/>
   <polygon class="fil0" points="0,0 0,0 0,0 0,0 "/>
   <polygon class="fil6" points="0,0 0,0 0,0 0,0 "/>
   <polygon class="fil4" points="0,0 0,0 0,0 0,0 "/>
   <polygon class="fil0" points="0,0 0,0 0,0 0,0 "/>
   <polygon class="fil5" points="0,0 0,0 0,0 0,0 "/>
   <polygon class="fil5" points="0,0 0,0 0,0 0,0 "/>
   <polygon class="fil0" points="0,0 0,0 0,0 0,0 "/>
   <polygon class="fil5" points="0,0 0,0 0,0 0,0 "/>
   <polygon class="fil0" points="0,0 0,0 0,0 0,0 "/>
   <polygon class="fil0" points="0,0 0,0 0,0 0,0 "/>
   <polygon class="fil6" points="0,0 0,0 0,0 0,0 "/>
   <polygon class="fil0" points="0,0 0,0 0,0 0,0 "/>
   <polygon class="fil6" points="0,0 0,0 0,0 0,0 "/>
   <polygon class="fil5" points="0,0 0,0 0,0 0,0 "/>
   <polygon class="fil3" points="0,0 0,0 0,0 0,0 "/>
   <polygon class="fil6" points="0,0 0,0 0,0 0,0 "/>
   <polygon class="fil4" points="0,0 0,0 0,0 0,0 "/>
   <polygon class="fil6" points="0,0 0,0 0,0 0,0 "/>
   <polygon class="fil6" points="0,0 0,0 0,0 0,0 "/>
   <polygon class="fil6" points="0,0 0,0 0,0 0,0 "/>
   <polygon class="fil4" points="0,0 0,0 0,0 0,0 "/>
   <polygon class="fil6" points="0,0 0,0 0,0 0,0 "/>
   <polygon class="fil3" points="0,0 0,0 0,0 0,0 "/>
   <polygon class="fil0" points="0,0 0,0 0,0 0,0 "/>
   <polygon class="fil4" points="0,0 0,0 0,0 0,0 "/>
   <polygon class="fil3" points="0,0 0,0 0,0 0,0 "/>
   <polygon class="fil4" points="0,0 0,0 0,0 0,0 "/>
   <polygon class="fil0" points="0,0 0,0 0,0 0,0 "/>
   <polygon class="fil0" points="0,0 0,0 0,0 0,0 "/>
   <polygon class="fil4" points="0,0 0,0 0,0 0,0 "/>
   <polygon class="fil5" points="0,0 0,0 0,0 0,0 "/>
   <polygon class="fil4" points="0,0 0,0 0,0 0,0 "/>
   <polygon class="fil0" points="0,0 0,0 0,0 0,0 "/>
   <polygon class="fil3" points="0,0 0,0 0,0 0,0 "/>
   <polygon class="fil3" points="0,0 0,0 0,0 0,0 "/>
   <polygon class="fil5" points="0,0 0,0 0,0 0,0 "/>
   <polygon class="fil4" points="0,0 0,0 0,0 0,0 "/>
   <polygon class="fil0" points="0,0 0,0 0,0 0,0 "/>
   <polygon class="fil4" points="0,0 0,0 0,0 0,0 "/>
   <polygon class="fil5" points="0,0 0,0 0,0 0,0 "/>
   <polygon class="fil3" points="0,0 0,0 0,0 0,0 "/>
   <polygon class="fil6" points="0,0 0,0 0,0 0,0 "/>
   <polygon class="fil3" points="0,0 0,0 0,0 0,0 "/>
   <polygon class="fil5" points="0,0 0,0 0,0 0,0 "/>
   <polygon class="fil4" points="0,0 0,0 0,0 0,0 "/>
   <polygon class="fil0" points="0,0 0,0 0,0 0,0 "/>
   <polygon class="fil6" points="0,0 0,0 0,0 0,0 "/>
   <polygon class="fil6" points="0,0 0,0 0,0 0,0 "/>
   <polygon class="fil3" points="0,0 0,0 0,0 0,0 "/>
   <polygon class="fil6" points="0,0 0,0 0,0 0,0 "/>
   <polygon class="fil6" points="0,0 0,0 0,0 0,0 "/>
   <polygon class="fil6" points="0,0 0,0 0,0 0,0 "/>
   <polygon class="fil3" points="0,0 0,0 0,0 0,0 "/>
   <polygon class="fil6" points="0,0 0,0 0,0 0,0 "/>
   <polygon class="fil6" points="0,0 0,0 0,0 0,0 "/>
   <polygon class="fil5" points="0,0 0,0 0,0 0,0 "/>
   <polygon class="fil0" points="0,0 0,0 0,0 0,0 "/>
   <polygon class="fil0" points="0,0 0,0 0,0 0,0 "/>
   <polygon class="fil4" points="0,0 0,0 0,0 0,0 "/>
   <polygon class="fil2" points="0,0 0,0 0,0 0,0 "/>
   <polygon class="fil2" points="0,0 0,0 0,0 0,0 "/>
   <polygon class="fil4" points="0,0 0,0 0,0 0,0 "/>
  </g>
 </g>
</svg>
