<?xml version="1.0" encoding="UTF-8"?>
<!DOCTYPE svg PUBLIC "-//W3C//DTD SVG 1.1//EN" "http://www.w3.org/Graphics/SVG/1.1/DTD/svg11.dtd">
<!-- Creator: CorelDRAW X6 -->
<svg xmlns="http://www.w3.org/2000/svg" xml:space="preserve" width="5.079mm" height="2.5391mm" version="1.1" style="shape-rendering:geometricPrecision; text-rendering:geometricPrecision; image-rendering:optimizeQuality; fill-rule:evenodd; clip-rule:evenodd"
viewBox="0 0 89 44"
 xmlns:xlink="http://www.w3.org/1999/xlink">
 <defs>
  <style type="text/css">
   <![CDATA[
    .fil3 {fill:#293938}
    .fil5 {fill:#436A27}
    .fil7 {fill:#4B95AB}
    .fil0 {fill:#649335}
    .fil1 {fill:#70B3C5}
    .fil6 {fill:#F3B945}
    .fil2 {fill:#F57E25}
    .fil4 {fill:whitesmoke}
   ]]>
  </style>
 </defs>
 <g id="Layer_x0020_1">
  <metadata id="CorelCorpID_0Corel-Layer"/>
  <g id="_1001775568">
   <path class="fil0" d="M52 30c0,0 0,0 0,0 0,0 1,0 1,1 0,2 -7,1 -4,-1 1,0 2,-1 2,0 1,0 1,0 1,0zm-12 0c0,0 1,0 1,1 0,2 -3,1 -3,1 -1,0 0,0 -1,0 0,0 0,0 0,0l0 -1c0,-1 1,-1 3,-1l0 0zm22 0c4,-2 6,1 2,2 -1,0 -2,0 -2,-1l0 -1zm-3 0c1,0 1,2 -1,2 -2,0 0,0 -1,0 0,0 0,0 0,0l-1 -1c0,0 0,-2 3,-1zm-13 0l1 0c3,2 -3,3 -3,2 0,-1 0,-2 2,-2zm-15 0c0,0 0,0 0,0 0,0 0,0 0,0 1,0 1,0 2,0 0,0 1,0 1,0 0,0 0,0 0,1l0 -1c1,3 -5,2 -4,0 0,-1 0,0 1,0zm-6 0c0,0 0,0 0,0l1 0c0,0 -1,0 1,0 3,0 3,3 0,3 -1,0 -1,0 -2,-1 0,0 0,0 0,-1 0,-1 0,0 1,-1zm44 -1l0 0zm-50 0l1 0c2,0 2,2 -1,2 -2,0 -3,-2 -1,-2zm56 0c0,0 0,0 1,0 3,0 3,3 0,2 -2,0 -1,0 -1,0 0,0 0,0 0,-1 0,0 0,0 0,0l0 0zm-62 0c2,0 1,0 3,0 0,0 0,0 1,0 0,0 0,1 -1,1 -1,1 -4,0 -3,-1 0,-1 0,0 1,-1zm69 -1c2,-1 4,2 2,2 -2,1 -4,-2 -2,-2zm-74 0c0,0 -1,0 1,0 0,0 1,0 1,0 1,1 0,3 -3,2 0,-1 0,-2 1,-2zm66 4c1,0 8,0 9,-1 0,-1 -1,0 1,-1 5,-1 2,0 3,-1l-1 0c1,-1 0,-1 -1,-1 -1,0 -1,-1 -2,-1l0 -1c0,0 0,0 0,0l-1 0c-2,-1 -7,-2 -9,-3 -1,0 0,0 -2,0 -9,2 -33,2 -43,1 -1,0 -1,0 -2,0 4,0 8,1 11,1 8,0 28,0 34,-2l-1 -1c-1,0 -4,0 -6,0 -7,0 -24,0 -31,0 -4,0 -8,0 -12,0l0 0c0,0 0,0 0,0 0,0 0,0 0,1 1,0 5,1 5,1 -3,0 -5,-1 -7,-1 -3,1 -15,5 -15,6 7,2 25,2 34,2 6,0 13,0 19,0 2,0 17,-1 18,-1z"/>
   <path class="fil1" d="M26 20c3,-4 13,-7 21,-6 -12,1 -20,6 -21,6zm-5 2c4,1 41,1 47,0 -1,-2 -6,-6 -8,-7 -9,-4 -21,-4 -30,0 -3,1 -7,4 -8,7z"/>
   <path class="fil2" d="M17 36c2,0 8,6 24,6 9,0 17,-1 25,-4 1,0 2,-1 3,-1 0,0 0,0 0,0 0,0 0,0 0,0 1,0 0,0 1,0 1,0 0,0 1,0 1,0 0,0 1,-1 0,0 0,0 0,0 -17,1 -38,1 -54,0 0,0 0,0 0,0z"/>
   <path class="fil1" d="M86 31l-5 1c-1,0 -7,1 -9,1 -3,1 -33,1 -35,1 -6,0 -12,0 -17,0 -3,0 -6,0 -8,-1 -2,0 -7,-1 -8,-1l-3 0c1,1 1,0 1,1 13,4 62,4 81,1 1,0 3,-1 4,-1 1,0 1,-1 1,-1 0,-1 -1,0 -2,0z"/>
   <path class="fil3" d="M21 22c1,-3 6,-6 8,-7 9,-4 21,-4 30,0 2,1 8,4 8,7 -6,1 -43,1 -47,0zm-4 14c0,-1 0,0 0,0 17,1 38,1 54,0 0,0 0,0 0,0 2,-1 1,0 5,-1 2,0 4,0 5,-1 1,0 3,-1 5,-1 2,-1 3,-2 1,-3 -1,0 -1,0 -2,1l1 0c1,0 2,-1 2,0 0,1 0,1 -1,1 -1,1 -3,1 -4,1 -18,4 -68,3 -81,-1 -1,0 -2,-1 -2,-2 1,0 1,0 2,0 1,0 1,0 2,0 1,0 6,1 8,1 3,0 6,0 8,1 6,0 12,0 17,0 2,0 32,0 35,-1 -1,0 -16,0 -18,1 -6,0 -13,0 -19,0 -9,0 -27,0 -34,-2 0,-2 12,-6 15,-6 2,-1 5,0 7,1 -1,0 -4,-1 -5,-1 0,-1 0,0 0,-1 0,0 0,0 0,0l0 0c4,0 8,0 12,0 8,0 24,0 31,0 2,0 4,0 6,0l1 1c-6,2 -26,2 -34,2 -4,0 -8,-1 -11,-1 0,0 0,0 2,0 10,1 34,1 43,-1 2,0 1,0 2,0 -1,0 -1,0 -1,-1 0,0 0,-1 0,-1 -2,0 -1,1 -2,-2 -3,-3 -8,-6 -14,-8 -5,-1 -6,-1 -9,-1l0 -8c-1,-1 0,0 -1,0 -2,0 0,0 -1,0l0 8c-4,1 -8,0 -15,3 -3,1 -5,3 -7,5 -2,2 0,1 -2,2 -1,3 -2,1 -8,4 -3,1 -6,2 -9,4 -1,1 -3,1 -2,3 3,2 13,2 16,3 0,0 0,0 0,0 0,0 0,0 0,0z"/>
   <path class="fil4" d="M26 20c2,-1 9,-5 21,-6 -9,-1 -18,3 -21,6z"/>
   <path class="fil3" d="M21 42c1,0 1,-1 1,-2 0,-1 1,-1 1,-2 1,0 1,0 2,1 1,0 1,0 2,1 1,0 14,4 29,1 1,0 2,-1 3,0 0,-1 3,-1 4,-1l0 0c1,1 3,4 3,4l-1 0c0,0 -1,0 1,0 2,0 0,-2 0,-2 -1,-1 -2,-2 -2,-3 1,0 1,0 2,-1 1,0 1,0 2,-1 -1,0 -2,1 -3,1 -7,3 -16,4 -25,4 -16,-1 -23,-6 -24,-6 1,1 5,3 7,3 -1,1 -2,2 -2,3z"/>
   <path class="fil2" d="M21 42c0,1 -1,2 0,2 0,0 2,-1 2,-1 1,-1 3,-2 4,-2 0,0 -1,0 -2,-1 -1,0 -1,0 -2,-1 0,1 -1,1 -1,2 0,1 -1,1 -1,2z"/>
   <path class="fil2" d="M61 41l0 0c1,0 0,0 1,0 1,0 4,2 5,3l1 0c0,-1 -2,-4 -3,-4l0 0c-1,0 -3,1 -4,1z"/>
   <path class="fil0" d="M42 1c-1,1 1,2 2,2 0,0 -1,0 1,0 1,0 0,0 1,0 1,0 2,-1 2,-1 -1,0 0,0 0,-1 0,-1 -2,-1 -3,-1 -1,0 0,0 -1,1z"/>
   <path class="fil5" d="M81 32l5 -1 -1 0c1,0 2,0 2,-1 -1,-1 -4,-3 -6,-3l0 1c1,0 1,1 2,1 1,0 2,1 1,1l1 0c-1,1 2,0 -3,1 -2,0 -1,0 -1,1z"/>
   <path class="fil6" d="M52 30c-1,0 0,0 0,0 -3,-1 -4,1 -2,2 2,0 3,-1 2,-2z"/>
   <path class="fil6" d="M43 31c1,0 2,1 3,0 1,-1 0,-1 -1,-2 -2,0 -3,0 -2,2z"/>
   <path class="fil6" d="M30 30c-2,2 2,3 3,1 0,0 0,0 0,-1 0,0 -1,0 -1,0 -1,0 -1,0 -2,0 0,0 0,0 0,0 0,0 0,0 0,0z"/>
   <path class="fil6" d="M37 32c2,1 4,0 3,-2l0 0c-2,0 -3,0 -3,1l0 1c0,0 0,0 0,0z"/>
   <path class="fil6" d="M62 32c3,0 3,-2 1,-2 -2,0 -3,1 -1,2z"/>
   <path class="fil6" d="M24 30c-1,2 2,2 3,1 1,-1 0,-2 -2,-2l-1 0c0,0 0,0 0,0z"/>
   <path class="fil6" d="M20 29l-1 0c-3,1 1,3 2,1 0,-1 0,-1 -1,-1z"/>
   <path class="fil6" d="M56 32c2,0 3,-1 2,-2 -3,0 -3,1 -3,1l1 1c0,0 0,0 0,0z"/>
   <path class="fil6" d="M12 29l0 1c1,1 2,1 3,0 0,-1 0,-1 0,-1 -2,0 0,0 -3,0z"/>
   <path class="fil6" d="M74 29l0 0c0,0 0,0 0,0 0,0 0,0 0,1l2 0c2,-1 1,-2 -2,-2z"/>
   <path class="fil6" d="M7 28l-1 0c0,0 0,0 0,0 0,0 0,1 0,1l2 0c2,-1 1,-2 -1,-2z"/>
   <path class="fil6" d="M81 29c-2,0 -1,2 1,2 2,0 0,-2 -1,-2z"/>
   <path class="fil3" d="M52 30c1,1 0,2 -2,2 -2,-1 -1,-3 2,-2 0,0 1,0 -1,0 -1,0 -2,0 -2,0 -3,2 3,4 4,1 0,-1 -1,-1 -1,-1z"/>
   <path class="fil3" d="M62 32c-2,-1 -1,-2 1,-2 2,0 2,2 -1,2zm-1 0c1,0 1,1 2,1 3,0 1,-4 -2,-2l0 1z"/>
   <path class="fil3" d="M81 29c2,0 3,1 1,2 -2,0 -3,-1 -1,-2zm0 0c-2,1 -1,3 2,2 2,-1 1,-3 -2,-2z"/>
   <path class="fil3" d="M21 42c0,0 -1,1 -1,1 0,1 4,-1 4,-1 1,0 1,-1 2,-1 1,-1 1,-1 1,-1 -2,0 -3,2 -4,2 0,0 -2,1 -2,1 -1,0 0,-1 0,-2z"/>
   <path class="fil7" d="M2 33c0,-1 0,0 -1,-1l3 0c-1,0 0,0 -2,0 -1,0 -1,0 -2,0 0,1 0,1 2,2z"/>
   <path class="fil3" d="M7 28c2,0 3,1 1,2l-2 0c0,0 0,-1 0,-1 0,0 0,0 0,0l1 0zm0 0c-2,0 -2,1 -1,2 3,1 4,-1 3,-2 0,0 0,0 -1,0 -1,0 -1,0 -1,0z"/>
   <path class="fil3" d="M24 30c-1,0 -1,0 -1,1 0,0 0,0 0,1 0,0 1,0 2,1 3,0 3,-3 0,-3 -1,0 -1,0 -1,0 2,0 3,1 2,2 -1,1 -4,0 -3,-1z"/>
   <path class="fil3" d="M42 1c1,0 0,0 1,-1 1,0 3,0 3,1 0,1 0,0 0,1 0,-1 0,-2 -2,-2 -2,0 -3,0 -3,1z"/>
   <path class="fil3" d="M20 29c1,0 1,1 1,1 -1,2 -6,0 -2,-1 -2,0 -2,2 1,2 3,0 2,-2 1,-2z"/>
   <path class="fil3" d="M74 29c2,-1 4,1 2,2l-2 0c0,0 -1,0 1,0 3,0 3,-3 0,-2 -1,0 -1,0 -1,0z"/>
   <path class="fil3" d="M34 31c-1,2 -5,1 -3,-1 0,0 0,0 -1,0 -1,2 5,3 4,0l0 1z"/>
   <path class="fil3" d="M15 29c0,1 0,1 0,1 -2,0 -2,0 -3,0l0 -1c0,0 0,0 -1,1 0,1 2,2 3,1 1,0 1,-1 1,-1 0,0 0,0 -1,0z"/>
   <path class="fil3" d="M67 44c0,0 -4,-2 -5,-3 -1,-1 0,0 -1,0 1,1 4,3 6,3z"/>
   <path class="fil3" d="M43 31c0,1 6,1 3,-2l-1 0c1,0 2,1 1,2 -1,1 -2,0 -3,0z"/>
   <path class="fil3" d="M37 32c0,0 0,0 1,0 0,0 3,0 3,-1 0,-1 -1,-1 -1,-1 1,1 0,2 -3,2z"/>
   <path class="fil3" d="M56 32c0,0 -1,0 1,0 2,0 3,-2 1,-2 1,1 1,2 -2,2z"/>
   <path class="fil3" d="M69 38c1,0 1,0 1,0 0,0 0,0 0,0 0,0 0,0 0,0 -1,0 0,0 -1,0 0,0 0,0 0,0 -1,0 0,0 0,0z"/>
   <line class="fil6" x1="69" y1="29" x2="69" y2= "29" />
   <path class="fil3" d="M69 29l0 0zm0 0l0 0z"/>
  </g>
 </g>
</svg>
